// converted from http://www.dafont.com/subzer0.font with http://typeface.neocracy.org/
if (_typeface_js && _typeface_js.loadFace) _typeface_js.loadFace({"glyphs":{"S":{"x_min":0,"x_max":2083.34375,"ha":2257,"o":"m 86 0 q 24 24 50 0 q 0 86 0 50 q 24 147 0 122 q 86 173 50 173 l 1822 173 q 1883 198 1858 173 q 1909 260 1909 223 l 1909 434 q 1883 495 1909 469 q 1822 520 1858 520 l 173 520 q 50 571 100 520 q 0 694 0 622 l 0 1041 q 50 1163 0 1113 q 173 1215 101 1215 l 1996 1215 q 2057 1189 2031 1215 q 2083 1128 2083 1163 q 2057 1066 2083 1091 q 1996 1041 2031 1041 l 260 1041 q 198 1015 223 1041 q 173 954 173 990 l 173 781 q 198 718 173 744 q 260 694 223 694 l 1909 694 q 2031 642 1981 694 q 2083 520 2083 591 l 2083 173 q 2031 50 2083 100 q 1909 0 1980 0 l 86 0 "},"K":{"x_min":0,"x_max":2083.34375,"ha":2257,"o":"m 0 694 l 0 1128 q 24 1189 0 1163 q 86 1215 50 1215 q 147 1189 122 1215 q 173 1128 173 1163 l 173 868 q 122 744 173 794 q 0 694 70 694 l 0 694 m 86 0 q 24 24 50 0 q 0 86 0 50 l 0 606 q 24 668 0 642 q 86 694 50 694 l 1822 694 q 1883 718 1858 694 q 1909 781 1909 744 l 1909 1128 q 1934 1189 1909 1163 q 1996 1215 1959 1215 q 2057 1189 2031 1215 q 2083 1128 2083 1163 l 2083 694 q 2031 571 2083 621 q 1909 520 1980 520 l 1562 520 l 2083 0 l 1822 0 l 1302 520 l 173 520 l 173 86 q 147 24 173 50 q 86 0 122 0 l 86 0 "},"7":{"x_min":0,"x_max":2083.34375,"ha":2257,"o":"m 1996 0 q 1934 24 1959 0 q 1909 86 1909 50 l 1909 954 q 1883 1015 1909 990 q 1822 1041 1858 1041 l 0 1041 q 50 1163 0 1113 q 173 1215 101 1215 l 1909 1215 q 2031 1163 1981 1215 q 2083 1041 2083 1112 l 2083 86 q 2057 24 2083 50 q 1996 0 2031 0 l 1996 0 "},"d":{"x_min":0,"x_max":1388.890625,"ha":1563,"o":"m 173 0 q 50 50 100 0 q 0 173 0 101 l 0 347 q 50 469 0 419 q 173 520 101 520 l 1128 520 q 1189 495 1163 520 q 1215 434 1215 469 q 1189 371 1215 397 q 1128 347 1163 347 l 260 347 q 198 321 223 347 q 173 260 173 295 q 198 198 173 223 q 260 173 223 173 l 1215 173 l 1215 781 q 1239 842 1215 816 q 1302 868 1265 868 q 1363 842 1337 868 q 1388 781 1388 816 l 1388 0 l 173 0 "},",":{"x_min":0,"x_max":173.609375,"ha":347,"o":"m 173 -86 q 147 -24 173 -50 q 86 0 122 0 q 24 24 50 0 q 0 86 0 50 l 0 173 l 86 173 q 147 147 122 173 q 173 86 173 122 l 173 -86 l 173 -86 "},"Y":{"x_min":0,"x_max":2083.34375,"ha":2257,"o":"m 1041 0 q 973 24 1002 0 q 946 86 946 50 l 946 520 l 189 520 q 54 571 109 520 q 0 694 0 622 l 0 1128 q 27 1189 0 1163 q 94 1215 54 1215 q 161 1189 132 1215 q 189 1128 189 1163 l 189 781 q 215 718 189 744 q 283 694 244 694 l 1799 694 q 1866 718 1837 694 q 1893 781 1893 744 l 1893 1128 q 1920 1189 1893 1163 q 1988 1215 1949 1215 q 2054 1189 2027 1215 q 2083 1128 2083 1163 l 2083 694 q 2027 571 2083 621 q 1893 520 1970 520 l 1136 520 l 1136 86 q 1108 24 1136 50 q 1041 0 1079 0 l 1041 0 "},"E":{"x_min":0,"x_max":2083.34375,"ha":2257,"o":"m 173 0 q 50 50 100 0 q 0 173 0 101 l 0 520 q 50 642 0 592 q 173 694 101 694 l 1302 694 q 1363 668 1337 694 q 1388 607 1388 642 q 1363 545 1388 571 q 1302 520 1337 520 l 260 520 q 198 495 223 520 q 173 434 173 469 l 173 260 q 198 198 173 223 q 260 173 223 173 l 1996 173 q 2057 147 2031 173 q 2083 86 2083 122 q 2057 24 2083 50 q 1996 0 2031 0 l 173 0 m 86 1041 q 24 1066 50 1041 q 0 1128 0 1091 q 24 1189 0 1163 q 86 1215 50 1215 l 1996 1215 q 2057 1189 2031 1215 q 2083 1128 2083 1163 q 2057 1066 2083 1091 q 1996 1041 2031 1041 l 86 1041 "},"y":{"x_min":0,"x_max":1475.703125,"ha":1736,"o":"m 737 0 q 661 24 693 0 q 632 86 632 50 l 632 347 l 210 347 q 61 397 122 347 q 0 520 0 448 l 0 781 q 29 842 0 816 q 105 868 61 868 q 179 842 147 868 q 210 781 210 816 l 210 607 q 240 545 210 571 q 316 520 271 520 l 1159 520 q 1234 545 1201 520 q 1265 607 1265 571 l 1265 781 q 1293 842 1265 816 q 1369 868 1326 868 q 1444 842 1413 868 q 1475 781 1475 816 l 1475 520 q 1413 397 1475 447 q 1265 347 1350 347 l 843 347 l 843 86 q 812 24 843 50 q 737 0 781 0 l 737 0 "},"\"":{"x_min":0,"x_max":347.21875,"ha":521,"o":"m 173 1041 q 122 1163 173 1112 q 0 1215 70 1215 l 86 1302 l 173 1215 l 173 1041 l 173 1041 m 347 1041 q 295 1163 347 1112 q 173 1215 244 1215 l 260 1302 l 347 1215 l 347 1041 l 347 1041 "},"g":{"x_min":0,"x_max":1388.890625,"ha":1563,"o":"m 1128 173 q 1189 198 1163 173 q 1215 260 1215 223 l 1215 347 l 260 347 q 198 321 223 347 q 173 260 173 295 q 198 198 173 223 q 260 173 223 173 l 1128 173 m 86 -347 q 24 -321 50 -347 q 0 -260 0 -295 q 24 -198 0 -223 q 86 -173 50 -173 l 1215 -173 l 1215 0 l 173 0 q 50 50 100 0 q 0 173 0 101 l 0 347 q 50 469 0 419 q 173 520 101 520 l 1388 520 l 1388 -173 q 1337 -295 1388 -245 q 1215 -347 1285 -347 l 86 -347 "},"e":{"x_min":0,"x_max":1388.890625,"ha":1563,"o":"m 1215 520 l 1215 607 q 1189 668 1215 642 q 1128 694 1163 694 l 260 694 q 198 668 223 694 q 173 607 173 642 l 173 520 l 1215 520 m 173 0 q 50 50 100 0 q 0 173 0 101 l 0 694 q 50 816 0 766 q 173 868 101 868 l 1215 868 q 1337 816 1287 868 q 1388 694 1388 764 l 1388 347 l 173 347 l 173 260 q 198 198 173 223 q 260 173 223 173 l 1302 173 q 1363 147 1337 173 q 1388 86 1388 122 q 1363 24 1388 50 q 1302 0 1337 0 l 173 0 "},"J":{"x_min":0,"x_max":2083.34375,"ha":2257,"o":"m 173 0 q 50 50 100 0 q 0 173 0 101 l 0 434 q 24 495 0 469 q 86 520 50 520 q 147 495 122 520 q 173 434 173 469 l 173 260 q 198 198 173 223 q 260 173 223 173 l 1822 173 q 1883 198 1858 173 q 1909 260 1909 223 l 1909 1041 l 1475 1041 q 1413 1066 1439 1041 q 1388 1128 1388 1091 q 1413 1189 1388 1163 q 1475 1215 1439 1215 l 2083 1215 l 2083 173 q 2031 50 2083 100 q 1909 0 1980 0 l 173 0 "},"q":{"x_min":0,"x_max":1562.5,"ha":1736,"o":"m 1215 173 l 1215 347 l 260 347 q 198 321 223 347 q 173 260 173 295 q 198 198 173 223 q 260 173 223 173 l 1215 173 m 1388 -347 q 1265 -295 1315 -347 q 1215 -173 1215 -244 l 1215 0 l 173 0 q 50 50 100 0 q 0 173 0 101 l 0 347 q 50 469 0 419 q 173 520 101 520 l 1388 520 l 1388 -173 q 1439 -295 1388 -244 q 1562 -347 1490 -347 l 1388 -347 "},"b":{"x_min":0,"x_max":1388.890625,"ha":1563,"o":"m 0 0 l 0 781 q 24 842 0 816 q 86 868 50 868 q 147 842 122 868 q 173 781 173 816 l 173 173 l 1128 173 q 1189 198 1163 173 q 1215 260 1215 223 q 1189 321 1215 295 q 1128 347 1163 347 l 260 347 q 198 371 223 347 q 173 434 173 397 q 198 495 173 469 q 260 520 223 520 l 1215 520 q 1337 469 1287 520 q 1388 347 1388 417 l 1388 173 q 1337 50 1388 100 q 1215 0 1285 0 l 0 0 "},"D":{"x_min":0,"x_max":2083.34375,"ha":2257,"o":"m 0 0 l 0 694 l 173 694 l 173 173 l 1822 173 q 1883 198 1858 173 q 1909 260 1909 223 l 1909 954 q 1883 1015 1909 990 q 1822 1041 1858 1041 l 86 1041 q 24 1066 50 1041 q 0 1128 0 1091 q 24 1189 0 1163 q 86 1215 50 1215 l 1909 1215 q 2031 1163 1981 1215 q 2083 1041 2083 1112 l 2083 173 q 2031 50 2083 100 q 1909 0 1980 0 l 0 0 "},"z":{"x_min":0,"x_max":1388.890625,"ha":1563,"o":"m 173 0 q 50 50 100 0 q 0 173 0 101 l 1041 694 l 86 694 q 24 718 50 694 q 0 781 0 744 q 24 842 0 816 q 86 868 50 868 l 1215 868 q 1337 816 1287 868 q 1388 694 1388 764 l 347 173 l 1302 173 q 1363 147 1337 173 q 1388 86 1388 122 q 1363 24 1388 50 q 1302 0 1337 0 l 173 0 "},"w":{"x_min":0,"x_max":1475.703125,"ha":1736,"o":"m 210 0 q 61 50 122 0 q 0 173 0 101 l 0 781 q 29 842 0 816 q 105 868 61 868 q 179 842 147 868 q 210 781 210 816 l 210 260 q 240 198 210 223 q 316 173 271 173 l 527 173 q 600 198 569 173 q 632 260 632 223 l 632 607 q 661 668 632 642 q 737 694 693 694 q 812 668 781 694 q 843 607 843 642 l 843 260 q 873 198 843 223 q 948 173 904 173 l 1159 173 q 1234 198 1201 173 q 1265 260 1265 223 l 1265 781 q 1293 842 1265 816 q 1369 868 1326 868 q 1444 842 1413 868 q 1475 781 1475 816 l 1475 173 q 1413 50 1475 100 q 1265 0 1350 0 l 843 0 q 767 24 798 0 q 736 86 736 50 q 706 24 736 50 q 632 0 675 0 l 632 0 l 632 0 l 210 0 "},"$":{"x_min":0,"x_max":2083.34375,"ha":2257,"o":"m 1388 347 l 1388 520 l 694 520 l 694 347 l 1388 347 m 1822 347 q 1883 371 1858 347 q 1909 434 1909 397 q 1883 495 1909 469 q 1822 520 1858 520 l 1562 520 l 1562 347 l 1822 347 m 520 694 l 520 868 l 260 868 q 198 842 223 868 q 173 781 173 816 q 198 718 173 744 q 260 694 223 694 l 520 694 m 1388 694 l 1388 868 l 694 868 l 694 694 l 1388 694 m 607 0 q 545 24 571 0 q 520 86 520 50 l 520 173 l 86 173 q 24 198 50 173 q 0 260 0 223 q 24 321 0 295 q 86 347 50 347 l 520 347 l 520 520 l 173 520 q 50 571 100 520 q 0 694 0 622 l 0 868 q 50 990 0 939 q 173 1041 101 1041 l 520 1041 l 520 1128 q 545 1189 520 1163 q 607 1215 571 1215 q 668 1189 642 1215 q 694 1128 694 1163 l 694 1041 l 1388 1041 l 1388 1128 q 1413 1189 1388 1163 q 1475 1215 1439 1215 q 1536 1189 1510 1215 q 1562 1128 1562 1163 l 1562 1041 l 1996 1041 q 2057 1015 2031 1041 q 2083 954 2083 990 q 2057 892 2083 918 q 1996 868 2031 868 l 1562 868 l 1562 694 l 1909 694 q 2031 642 1981 694 q 2083 520 2083 591 l 2083 347 q 2031 223 2083 273 q 1909 173 1980 173 l 1562 173 l 1562 86 q 1536 24 1562 50 q 1475 0 1510 0 q 1413 24 1439 0 q 1388 86 1388 50 l 1388 173 l 694 173 l 694 86 q 668 24 694 50 q 607 0 642 0 l 607 0 "},"’":{"x_min":0,"x_max":173.609375,"ha":347,"o":"m 173 954 q 147 1015 173 990 q 86 1041 122 1041 q 24 1066 50 1041 q 0 1128 0 1091 l 0 1215 l 86 1215 q 147 1189 122 1215 q 173 1128 173 1163 l 173 954 l 173 954 "},"-":{"x_min":0,"x_max":868.0625,"ha":1042,"o":"m 86 520 q 24 545 50 520 q 0 607 0 571 q 24 668 0 642 q 86 694 50 694 l 781 694 q 842 668 816 694 q 868 607 868 642 q 842 545 868 571 q 781 520 816 520 l 86 520 "},"Q":{"x_min":0,"x_max":2083.34375,"ha":2257,"o":"m 1822 173 q 1883 198 1858 173 q 1909 260 1909 223 l 1909 954 q 1883 1015 1909 990 q 1822 1041 1858 1041 l 260 1041 q 198 1015 223 1041 q 173 954 173 990 l 173 260 q 198 198 173 223 q 260 173 223 173 l 1388 173 l 1302 347 l 1475 347 l 1562 173 l 1822 173 m 1562 -173 l 1475 0 l 173 0 q 50 50 100 0 q 0 173 0 101 l 0 1041 q 50 1163 0 1113 q 173 1215 101 1215 l 1909 1215 q 2031 1163 1981 1215 q 2083 1041 2083 1112 l 2083 173 q 2031 50 2083 100 q 1909 0 1980 0 l 1649 0 l 1736 -173 l 1562 -173 "},"M":{"x_min":0,"x_max":2083.34375,"ha":2257,"o":"m 86 0 q 24 24 50 0 q 0 86 0 50 l 0 1041 q 50 1163 0 1113 q 173 1215 101 1215 l 1041 347 l 1909 1215 q 2031 1163 1981 1215 q 2083 1041 2083 1112 l 2083 86 q 2057 24 2083 50 q 1996 0 2031 0 q 1934 24 1959 0 q 1909 86 1909 50 l 1909 954 l 1041 86 l 173 954 l 173 86 q 147 24 173 50 q 86 0 122 0 l 86 0 "},"C":{"x_min":0,"x_max":2083.34375,"ha":2257,"o":"m 173 0 q 50 50 100 0 q 0 173 0 101 l 0 1041 q 50 1163 0 1113 q 173 1215 101 1215 l 1996 1215 q 2057 1189 2031 1215 q 2083 1128 2083 1163 q 2057 1066 2083 1091 q 1996 1041 2031 1041 l 260 1041 q 198 1015 223 1041 q 173 954 173 990 l 173 260 q 198 198 173 223 q 260 173 223 173 l 1996 173 q 2057 147 2031 173 q 2083 86 2083 122 q 2057 24 2083 50 q 1996 0 2031 0 l 173 0 "},"L":{"x_min":0,"x_max":2083.34375,"ha":2257,"o":"m 173 0 q 50 50 100 0 q 0 173 0 101 l 0 1128 q 24 1189 0 1163 q 86 1215 50 1215 q 147 1189 122 1215 q 173 1128 173 1163 l 173 260 q 198 198 173 223 q 260 173 223 173 l 1996 173 q 2057 147 2031 173 q 2083 86 2083 122 q 2057 24 2083 50 q 1996 0 2031 0 l 173 0 "},"!":{"x_min":0,"x_max":173.609375,"ha":347,"o":"m 0 0 l 0 86 q 24 147 0 122 q 86 173 50 173 l 173 173 l 173 86 q 147 24 173 50 q 86 0 122 0 l 0 0 m 0 173 l 0 1128 q 24 1189 0 1163 q 86 1215 50 1215 q 147 1189 122 1215 q 173 1128 173 1163 l 173 347 q 122 223 173 273 q 0 173 70 173 l 0 173 "}," ":{"x_min":0,"x_max":0,"ha":1017},"X":{"x_min":0,"x_max":2083.34375,"ha":2257,"o":"m 86 0 q 24 24 50 0 q 0 86 0 50 l 0 520 q 50 642 0 592 q 173 694 101 694 q 50 744 100 694 q 0 868 0 796 l 0 1128 q 24 1189 0 1163 q 86 1215 50 1215 q 147 1189 122 1215 q 173 1128 173 1163 l 173 781 q 198 718 173 744 q 260 694 223 694 l 1822 694 q 1883 718 1858 694 q 1909 781 1909 744 l 1909 1128 q 1934 1189 1909 1163 q 1996 1215 1959 1215 q 2057 1189 2031 1215 q 2083 1128 2083 1163 l 2083 694 q 2031 571 2083 621 q 1909 520 1980 520 q 2031 469 1981 520 q 2083 347 2083 417 l 2083 86 q 2057 24 2083 50 q 1996 0 2031 0 q 1934 24 1959 0 q 1909 86 1909 50 l 1909 434 q 1883 495 1909 469 q 1822 520 1858 520 l 260 520 q 198 495 223 520 q 173 434 173 469 l 173 86 q 147 24 173 50 q 86 0 122 0 l 86 0 "},"P":{"x_min":0,"x_max":2083.34375,"ha":2257,"o":"m 86 0 q 24 24 50 0 q 0 86 0 50 l 0 606 q 24 668 0 642 q 86 694 50 694 l 1822 694 q 1883 718 1858 694 q 1909 781 1909 744 l 1909 954 q 1883 1015 1909 990 q 1822 1041 1858 1041 l 86 1041 q 24 1066 50 1041 q 0 1128 0 1091 q 24 1189 0 1163 q 86 1215 50 1215 l 1909 1215 q 2031 1163 1981 1215 q 2083 1041 2083 1112 l 2083 694 q 2031 571 2083 621 q 1909 520 1980 520 l 260 520 q 198 495 223 520 q 173 434 173 469 l 173 86 q 147 24 173 50 q 86 0 122 0 l 86 0 "},"#":{"x_min":0,"x_max":2083.34375,"ha":2257,"o":"m 1388 520 l 1388 694 l 694 694 l 694 520 l 1388 520 m 607 0 q 545 24 571 0 q 520 86 520 50 l 520 347 l 86 347 q 24 371 50 347 q 0 434 0 397 q 24 495 0 469 q 86 520 50 520 l 520 520 l 520 694 l 86 694 q 24 718 50 694 q 0 781 0 744 q 24 842 0 816 q 86 868 50 868 l 520 868 l 520 1128 q 545 1189 520 1163 q 607 1215 571 1215 q 668 1189 642 1215 q 694 1128 694 1163 l 694 868 l 1388 868 l 1388 1128 q 1413 1189 1388 1163 q 1475 1215 1439 1215 q 1536 1189 1510 1215 q 1562 1128 1562 1163 l 1562 868 l 1996 868 q 2057 842 2031 868 q 2083 781 2083 816 q 2057 718 2083 744 q 1996 694 2031 694 l 1562 694 l 1562 520 l 1996 520 q 2057 495 2031 520 q 2083 434 2083 469 q 2057 371 2083 397 q 1996 347 2031 347 l 1562 347 l 1562 86 q 1536 24 1562 50 q 1475 0 1510 0 q 1413 24 1439 0 q 1388 86 1388 50 l 1388 347 l 694 347 l 694 86 q 668 24 694 50 q 607 0 642 0 l 607 0 "},"_":{"x_min":0,"x_max":2083.34375,"ha":2257,"o":"m 0 -173 l 0 0 q 50 122 0 71 q 173 173 101 173 l 1909 173 q 2031 122 1981 173 q 2083 0 2083 70 l 2083 -173 q 2031 -50 2083 -101 q 1909 0 1980 0 l 173 0 q 50 -50 101 0 q 0 -173 0 -101 l 0 -173 "},"+":{"x_min":0,"x_max":868.0625,"ha":1042,"o":"m 434 173 q 371 198 397 173 q 347 260 347 223 l 347 520 l 86 520 q 24 545 50 520 q 0 607 0 571 q 24 668 0 642 q 86 694 50 694 l 347 694 l 347 954 q 371 1015 347 990 q 434 1041 397 1041 q 495 1015 469 1041 q 520 954 520 990 l 520 694 l 781 694 q 842 668 816 694 q 868 607 868 642 q 842 545 868 571 q 781 520 816 520 l 520 520 l 520 260 q 495 198 520 223 q 434 173 469 173 l 434 173 "},")":{"x_min":0,"x_max":347.21875,"ha":521,"o":"m 0 0 q 122 50 70 0 q 173 173 173 101 l 173 1041 q 122 1163 173 1112 q 0 1215 70 1215 l 173 1215 q 295 1163 245 1215 q 347 1041 347 1112 l 347 173 q 295 50 347 100 q 173 0 244 0 l 0 0 "},"'":{"x_min":0,"x_max":173.609375,"ha":347,"o":"m 173 1041 q 122 1163 173 1112 q 0 1215 70 1215 l 86 1302 l 173 1215 l 173 1041 l 173 1041 "},"T":{"x_min":0,"x_max":2083.34375,"ha":2257,"o":"m 1041 0 q 973 24 1002 0 q 946 86 946 50 l 946 1041 l 94 1041 q 27 1066 54 1041 q 0 1128 0 1091 q 27 1189 0 1163 q 94 1215 54 1215 l 1988 1215 q 2054 1189 2027 1215 q 2083 1128 2083 1163 q 2054 1066 2083 1091 q 1988 1041 2027 1041 l 1136 1041 l 1136 86 q 1108 24 1136 50 q 1041 0 1079 0 l 1041 0 "},"a":{"x_min":0,"x_max":1475.703125,"ha":1736,"o":"m 1215 173 l 1215 260 q 1189 321 1215 295 q 1128 347 1163 347 l 260 347 q 198 321 223 347 q 173 260 173 295 q 198 198 173 223 q 260 173 223 173 l 1215 173 m 173 0 q 50 50 100 0 q 0 173 0 101 l 0 347 q 50 469 0 419 q 173 520 101 520 l 1128 520 q 1189 545 1163 520 q 1215 607 1215 571 q 1189 668 1215 642 q 1128 694 1163 694 l 434 694 q 371 718 397 694 q 347 781 347 744 q 371 842 347 816 q 434 868 397 868 l 1215 868 q 1337 816 1287 868 q 1388 694 1388 764 l 1388 86 q 1413 24 1388 50 q 1475 0 1439 0 l 173 0 "},"N":{"x_min":0,"x_max":2083.34375,"ha":2257,"o":"m 86 0 q 24 24 50 0 q 0 86 0 50 l 0 1041 q 50 1163 0 1113 q 173 1215 101 1215 l 607 1215 l 1649 173 l 1996 173 q 2057 147 2031 173 q 2083 86 2083 122 q 2057 24 2083 50 q 1996 0 2031 0 l 1475 0 l 434 1041 l 260 1041 q 198 1015 223 1041 q 173 954 173 990 l 173 86 q 147 24 173 50 q 86 0 122 0 l 86 0 m 2083 173 q 1959 223 2010 173 q 1909 347 1909 275 l 1909 1128 q 1934 1189 1909 1163 q 1996 1215 1959 1215 q 2057 1189 2031 1215 q 2083 1128 2083 1163 l 2083 173 l 2083 173 "},"2":{"x_min":0,"x_max":2083.34375,"ha":2257,"o":"m 173 0 q 50 50 100 0 q 0 173 0 101 l 0 520 q 50 642 0 592 q 173 694 101 694 l 1822 694 q 1883 718 1858 694 q 1909 781 1909 744 l 1909 954 q 1883 1015 1909 990 q 1822 1041 1858 1041 l 86 1041 q 24 1066 50 1041 q 0 1128 0 1091 q 24 1189 0 1163 q 86 1215 50 1215 l 1909 1215 q 2031 1163 1981 1215 q 2083 1041 2083 1112 l 2083 694 q 2031 571 2083 621 q 1909 520 1980 520 l 260 520 q 198 495 223 520 q 173 434 173 469 l 173 260 q 198 198 173 223 q 260 173 223 173 l 1996 173 q 2057 147 2031 173 q 2083 86 2083 122 q 2057 24 2083 50 q 1996 0 2031 0 l 173 0 "},"j":{"x_min":0,"x_max":173.609375,"ha":347,"o":"m 0 -347 l 0 347 q 50 469 0 419 q 173 520 101 520 l 173 -173 q 122 -295 173 -245 q 0 -347 70 -347 l 0 -347 m 86 694 q 24 718 50 694 q 0 781 0 744 q 24 842 0 816 q 86 868 50 868 q 147 842 122 868 q 173 781 173 816 q 147 718 173 744 q 86 694 122 694 l 86 694 "},"Z":{"x_min":0,"x_max":2083.34375,"ha":2257,"o":"m 173 0 q 50 50 100 0 q 0 173 0 101 l 1736 1041 l 86 1041 q 24 1066 50 1041 q 0 1128 0 1091 q 24 1189 0 1163 q 86 1215 50 1215 l 1909 1215 q 2031 1163 1981 1215 q 2083 1041 2083 1112 l 347 173 l 1996 173 q 2057 147 2031 173 q 2083 86 2083 122 q 2057 24 2083 50 q 1996 0 2031 0 l 173 0 "},"u":{"x_min":0,"x_max":1388.890625,"ha":1563,"o":"m 173 0 q 50 50 100 0 q 0 173 0 101 l 0 781 q 24 842 0 816 q 86 868 50 868 q 147 842 122 868 q 173 781 173 816 l 173 260 q 198 198 173 223 q 260 173 223 173 l 1128 173 q 1189 198 1163 173 q 1215 260 1215 223 l 1215 781 q 1239 842 1215 816 q 1302 868 1265 868 q 1363 842 1337 868 q 1388 781 1388 816 l 1388 173 q 1337 50 1388 100 q 1215 0 1285 0 l 173 0 "},"1":{"x_min":0,"x_max":347.21875,"ha":521,"o":"m 260 0 q 198 24 223 0 q 173 86 173 50 l 173 1041 l 86 1041 q 24 1066 50 1041 q 0 1128 0 1091 q 24 1189 0 1163 q 86 1215 50 1215 l 260 1215 q 321 1189 295 1215 q 347 1128 347 1163 l 347 86 q 321 24 347 50 q 260 0 295 0 l 260 0 "},"k":{"x_min":0,"x_max":1388.890625,"ha":1563,"o":"m 86 0 q 24 24 50 0 q 0 86 0 50 l 0 781 q 24 842 0 816 q 86 868 50 868 q 147 842 122 868 q 173 781 173 816 l 173 520 l 1128 520 q 1189 545 1163 520 q 1215 607 1215 571 l 1215 781 q 1239 842 1215 816 q 1302 868 1265 868 q 1363 842 1337 868 q 1388 781 1388 816 l 1388 520 q 1337 397 1388 447 q 1215 347 1285 347 l 1041 347 l 1388 0 l 1128 0 l 781 347 l 173 347 l 173 86 q 147 24 173 50 q 86 0 122 0 l 86 0 "},"t":{"x_min":0,"x_max":1388.890625,"ha":1563,"o":"m 173 0 q 50 50 100 0 q 0 173 0 101 l 0 868 q 122 816 71 868 q 173 694 173 764 l 173 520 l 520 520 q 642 469 592 520 q 694 347 694 417 l 173 347 l 173 260 q 198 198 173 223 q 260 173 223 173 l 1388 173 q 1337 50 1388 100 q 1215 0 1285 0 l 173 0 "},"W":{"x_min":0,"x_max":2083.34375,"ha":2257,"o":"m 189 0 q 54 50 109 0 q 0 173 0 101 l 0 1128 q 27 1189 0 1163 q 94 1215 54 1215 q 161 1189 132 1215 q 189 1128 189 1163 l 189 260 q 215 198 189 223 q 283 173 244 173 l 851 173 q 918 198 891 173 q 946 260 946 223 l 946 954 q 973 1015 946 990 q 1041 1041 1002 1041 q 1108 1015 1079 1041 q 1136 954 1136 990 l 1136 260 q 1162 198 1136 223 q 1231 173 1190 173 l 1799 173 q 1866 198 1837 173 q 1893 260 1893 223 l 1893 1128 q 1920 1189 1893 1163 q 1988 1215 1949 1215 q 2054 1189 2027 1215 q 2083 1128 2083 1163 l 2083 173 q 2027 50 2083 100 q 1893 0 1970 0 l 1136 0 q 1068 24 1095 0 q 1040 86 1040 50 q 1013 24 1040 50 q 946 0 986 0 l 946 0 l 946 0 l 189 0 "},"v":{"x_min":0,"x_max":1388.890625,"ha":1563,"o":"m 173 0 q 50 50 100 0 q 0 173 0 101 l 0 781 q 24 842 0 816 q 86 868 50 868 q 147 842 122 868 q 173 781 173 816 l 173 260 q 198 198 173 223 q 260 173 223 173 l 434 173 l 1128 868 l 1388 868 l 520 0 l 173 0 "},"s":{"x_min":0,"x_max":1388.890625,"ha":1563,"o":"m 86 0 q 24 24 50 0 q 0 86 0 50 q 24 147 0 122 q 86 173 50 173 l 1128 173 q 1189 198 1163 173 q 1215 260 1215 223 q 1189 321 1215 295 q 1128 347 1163 347 l 173 347 q 50 397 100 347 q 0 520 0 448 l 0 694 q 50 816 0 766 q 173 868 101 868 l 1302 868 q 1363 842 1337 868 q 1388 781 1388 816 q 1363 718 1388 744 q 1302 694 1337 694 l 260 694 q 198 668 223 694 q 173 607 173 642 q 198 545 173 571 q 260 520 223 520 l 1215 520 q 1337 469 1287 520 q 1388 347 1388 417 l 1388 173 q 1337 50 1388 100 q 1215 0 1285 0 l 86 0 "},"B":{"x_min":0,"x_max":2083.34375,"ha":2257,"o":"m 1822 173 q 1883 198 1858 173 q 1909 260 1909 223 l 1909 434 q 1883 495 1909 469 q 1822 520 1858 520 l 173 520 l 173 173 l 1822 173 m 0 0 l 0 694 l 1822 694 q 1883 718 1858 694 q 1909 781 1909 744 l 1909 954 q 1883 1015 1909 990 q 1822 1041 1858 1041 l 86 1041 q 24 1066 50 1041 q 0 1128 0 1091 q 24 1189 0 1163 q 86 1215 50 1215 l 1909 1215 q 2031 1163 1981 1215 q 2083 1041 2083 1112 l 2083 694 q 2031 571 2083 621 q 1909 520 1980 520 q 2031 469 1981 520 q 2083 347 2083 417 l 2083 173 q 2031 50 2083 100 q 1909 0 1980 0 l 0 0 "},"?":{"x_min":0,"x_max":2083.34375,"ha":2257,"o":"m 868 0 l 868 86 q 892 147 868 122 q 954 173 918 173 l 1041 173 l 1041 86 q 1015 24 1041 50 q 954 0 990 0 l 868 0 m 868 173 l 868 520 q 918 642 868 592 q 1041 694 969 694 l 1822 694 q 1883 718 1858 694 q 1909 781 1909 744 l 1909 954 q 1883 1015 1909 990 q 1822 1041 1858 1041 l 86 1041 q 24 1066 50 1041 q 0 1128 0 1091 q 24 1189 0 1163 q 86 1215 50 1215 l 1909 1215 q 2031 1163 1981 1215 q 2083 1041 2083 1112 l 2083 694 q 2031 571 2083 621 q 1909 520 1980 520 l 1128 520 q 1066 495 1091 520 q 1041 434 1041 469 l 1041 347 q 990 223 1041 273 q 868 173 938 173 l 868 173 "},"H":{"x_min":0,"x_max":2083.34375,"ha":2257,"o":"m 86 0 q 24 24 50 0 q 0 86 0 50 l 0 1128 q 24 1189 0 1163 q 86 1215 50 1215 q 147 1189 122 1215 q 173 1128 173 1163 l 173 781 q 198 718 173 744 q 260 694 223 694 l 1909 694 q 2031 642 1981 694 q 2083 520 2083 591 l 2083 86 q 2057 24 2083 50 q 1996 0 2031 0 q 1934 24 1959 0 q 1909 86 1909 50 l 1909 434 q 1883 495 1909 469 q 1822 520 1858 520 l 260 520 q 198 495 223 520 q 173 434 173 469 l 173 86 q 147 24 173 50 q 86 0 122 0 l 86 0 m 2083 694 q 1959 744 2010 694 q 1909 868 1909 796 l 1909 1128 q 1934 1189 1909 1163 q 1996 1215 1959 1215 q 2057 1189 2031 1215 q 2083 1128 2083 1163 l 2083 694 l 2083 694 "},"c":{"x_min":0,"x_max":1388.890625,"ha":1563,"o":"m 173 0 q 50 50 100 0 q 0 173 0 101 l 0 694 q 50 816 0 766 q 173 868 101 868 l 1302 868 q 1363 842 1337 868 q 1388 781 1388 816 q 1363 718 1388 744 q 1302 694 1337 694 l 260 694 q 198 668 223 694 q 173 607 173 642 l 173 260 q 198 198 173 223 q 260 173 223 173 l 1302 173 q 1363 147 1337 173 q 1388 86 1388 122 q 1363 24 1388 50 q 1302 0 1337 0 l 173 0 "},"I":{"x_min":0,"x_max":173.609375,"ha":347,"o":"m 86 0 q 24 24 50 0 q 0 86 0 50 l 0 1128 q 24 1189 0 1163 q 86 1215 50 1215 q 147 1189 122 1215 q 173 1128 173 1163 l 173 86 q 147 24 173 50 q 86 0 122 0 l 86 0 "},"G":{"x_min":0,"x_max":2083.34375,"ha":2257,"o":"m 173 0 q 50 50 100 0 q 0 173 0 101 l 0 1041 q 50 1163 0 1113 q 173 1215 101 1215 l 1996 1215 q 2057 1189 2031 1215 q 2083 1128 2083 1163 q 2057 1066 2083 1091 q 1996 1041 2031 1041 l 260 1041 q 198 1015 223 1041 q 173 954 173 990 l 173 260 q 198 198 173 223 q 260 173 223 173 l 1822 173 q 1883 198 1858 173 q 1909 260 1909 223 l 1909 434 q 1883 495 1909 469 q 1822 520 1858 520 l 607 520 q 545 545 571 520 q 520 607 520 571 q 545 668 520 642 q 607 694 571 694 l 1909 694 q 2031 642 1981 694 q 2083 520 2083 591 l 2083 173 q 2031 50 2083 100 q 1909 0 1980 0 l 173 0 "},"(":{"x_min":0,"x_max":347.21875,"ha":521,"o":"m 173 0 q 50 50 100 0 q 0 173 0 101 l 0 1041 q 50 1163 0 1113 q 173 1215 101 1215 l 347 1215 q 223 1163 275 1215 q 173 1041 173 1112 l 173 173 q 223 50 173 101 q 347 0 275 0 l 173 0 "},"U":{"x_min":0,"x_max":2083.34375,"ha":2257,"o":"m 173 0 q 50 50 100 0 q 0 173 0 101 l 0 1128 q 24 1189 0 1163 q 86 1215 50 1215 q 147 1189 122 1215 q 173 1128 173 1163 l 173 260 q 198 198 173 223 q 260 173 223 173 l 1822 173 q 1883 198 1858 173 q 1909 260 1909 223 l 1909 1128 q 1934 1189 1909 1163 q 1996 1215 1959 1215 q 2057 1189 2031 1215 q 2083 1128 2083 1163 l 2083 173 q 2031 50 2083 100 q 1909 0 1980 0 l 173 0 "},"F":{"x_min":0,"x_max":2083.34375,"ha":2257,"o":"m 86 0 q 24 24 50 0 q 0 86 0 50 l 0 520 q 50 642 0 592 q 173 694 101 694 l 1302 694 q 1363 668 1337 694 q 1388 607 1388 642 q 1363 545 1388 571 q 1302 520 1337 520 l 260 520 q 198 495 223 520 q 173 434 173 469 l 173 86 q 147 24 173 50 q 86 0 122 0 l 86 0 m 86 1041 q 24 1066 50 1041 q 0 1128 0 1091 q 24 1189 0 1163 q 86 1215 50 1215 l 1996 1215 q 2057 1189 2031 1215 q 2083 1128 2083 1163 q 2057 1066 2083 1091 q 1996 1041 2031 1041 l 86 1041 "},"r":{"x_min":0,"x_max":1388.890625,"ha":1563,"o":"m 86 0 q 24 24 50 0 q 0 86 0 50 l 0 694 q 50 816 0 766 q 173 868 101 868 l 1302 868 q 1363 842 1337 868 q 1388 781 1388 816 q 1363 718 1388 744 q 1302 694 1337 694 l 260 694 q 198 668 223 694 q 173 607 173 642 l 173 86 q 147 24 173 50 q 86 0 122 0 l 86 0 "},":":{"x_min":0,"x_max":173.609375,"ha":347,"o":"m 0 173 l 0 260 q 24 321 0 295 q 86 347 50 347 l 173 347 l 173 260 q 147 198 173 223 q 86 173 122 173 l 0 173 m 0 868 l 0 954 q 24 1015 0 990 q 86 1041 50 1041 l 173 1041 l 173 954 q 147 892 173 918 q 86 868 122 868 l 0 868 "},"x":{"x_min":0,"x_max":1388.890625,"ha":1563,"o":"m 86 0 q 24 24 50 0 q 0 86 0 50 l 0 347 q 50 469 0 419 q 173 520 101 520 q 50 571 100 520 q 0 694 0 622 l 0 781 q 24 842 0 816 q 86 868 50 868 q 147 842 122 868 q 173 781 173 816 l 173 607 q 198 545 173 571 q 260 520 223 520 l 1215 520 l 1215 781 q 1239 842 1215 816 q 1302 868 1265 868 q 1363 842 1337 868 q 1388 781 1388 816 l 1388 520 q 1337 397 1388 447 q 1215 347 1285 347 q 1337 295 1287 347 q 1388 173 1388 244 l 1388 86 q 1363 24 1388 50 q 1302 0 1337 0 q 1239 24 1265 0 q 1215 86 1215 50 l 1215 260 q 1189 321 1215 295 q 1128 347 1163 347 l 173 347 l 173 86 q 147 24 173 50 q 86 0 122 0 l 86 0 "},"*":{"x_min":0,"x_max":347.21875,"ha":521,"o":"m 173 868 q 122 990 173 938 q 0 1041 70 1041 q 122 1091 70 1041 q 173 1215 173 1143 q 223 1091 173 1143 q 347 1041 275 1041 q 223 990 275 1041 q 173 868 173 938 l 173 868 "},"V":{"x_min":0,"x_max":2083.34375,"ha":2257,"o":"m 173 0 q 50 50 100 0 q 0 173 0 101 l 0 1128 q 24 1189 0 1163 q 86 1215 50 1215 q 147 1189 122 1215 q 173 1128 173 1163 l 173 260 q 198 198 173 223 q 260 173 223 173 l 781 173 l 1822 1215 l 2083 1215 l 868 0 l 173 0 "},"h":{"x_min":0,"x_max":1388.890625,"ha":1563,"o":"m 86 0 q 24 24 50 0 q 0 86 0 50 l 0 781 q 24 842 0 816 q 86 868 50 868 q 147 842 122 868 q 173 781 173 816 l 173 520 l 1215 520 q 1337 469 1287 520 q 1388 347 1388 417 l 1388 86 q 1363 24 1388 50 q 1302 0 1337 0 q 1239 24 1265 0 q 1215 86 1215 50 l 1215 260 q 1189 321 1215 295 q 1128 347 1163 347 l 173 347 l 173 86 q 147 24 173 50 q 86 0 122 0 l 86 0 "},"0":{"x_min":-173.609375,"x_max":2256.953125,"ha":2431,"o":"m 1822 173 q 1883 198 1858 173 q 1909 260 1909 223 l 1909 868 l 868 347 l 694 347 l 1909 954 l 1909 1041 l 260 1041 q 198 1015 223 1041 q 173 954 173 990 l 173 347 l 1215 868 l 1388 868 l 173 260 l 173 173 l 1822 173 m 173 0 q 50 50 100 0 q 0 173 0 101 l -173 173 l 0 260 l 0 1041 q 50 1163 0 1113 q 173 1215 101 1215 l 1909 1215 q 2031 1163 1981 1215 q 2083 1041 2083 1112 l 2256 1041 l 2083 954 l 2083 173 q 2031 50 2083 100 q 1909 0 1980 0 l 173 0 "},".":{"x_min":0,"x_max":173.609375,"ha":347,"o":"m 0 0 l 0 86 q 24 147 0 122 q 86 173 50 173 l 173 173 l 173 86 q 147 24 173 50 q 86 0 122 0 l 0 0 "},"”":{"x_min":0,"x_max":347.21875,"ha":521,"o":"m 173 954 q 147 1015 173 990 q 86 1041 122 1041 q 24 1066 50 1041 q 0 1128 0 1091 l 0 1215 l 86 1215 q 147 1189 122 1215 q 173 1128 173 1163 l 173 954 l 173 954 m 347 954 q 321 1015 347 990 q 260 1041 295 1041 q 198 1066 223 1041 q 173 1128 173 1091 l 173 1215 l 260 1215 q 321 1189 295 1215 q 347 1128 347 1163 l 347 954 l 347 954 "},"@":{"x_min":0,"x_max":2083.34375,"ha":2257,"o":"m 1562 173 l 1562 347 l 607 347 q 545 321 571 347 q 520 260 520 295 q 545 198 520 223 q 607 173 571 173 l 1562 173 m 173 0 q 50 50 100 0 q 0 173 0 101 l 0 1041 q 50 1163 0 1113 q 173 1215 101 1215 l 1909 1215 q 2031 1163 1981 1215 q 2083 1041 2083 1112 l 2083 173 q 2031 50 2083 100 q 1909 0 1980 0 l 520 0 q 397 50 447 0 q 347 173 347 100 l 347 347 q 397 469 347 419 q 520 520 448 520 l 1562 520 l 1562 607 q 1536 668 1562 642 q 1475 694 1510 694 l 781 694 q 718 718 744 694 q 694 781 694 744 q 718 842 694 816 q 781 868 744 868 l 1562 868 q 1684 816 1634 868 q 1736 694 1736 764 l 1736 260 q 1760 198 1736 223 q 1822 173 1786 173 q 1883 198 1858 173 q 1909 260 1909 223 l 1909 954 q 1883 1015 1909 990 q 1822 1041 1858 1041 l 260 1041 q 198 1015 223 1041 q 173 954 173 990 l 173 173 q 223 50 173 101 q 347 0 275 0 l 173 0 "},";":{"x_min":0,"x_max":173.609375,"ha":347,"o":"m 173 86 q 147 147 173 122 q 86 173 122 173 q 24 198 50 173 q 0 260 0 223 l 0 347 l 86 347 q 147 321 122 347 q 173 260 173 295 l 173 86 l 173 86 m 86 868 q 24 892 50 868 q 0 954 0 918 l 0 1041 l 86 1041 q 147 1015 122 1041 q 173 954 173 990 l 173 868 l 86 868 "},"f":{"x_min":0,"x_max":1388.890625,"ha":1563,"o":"m 260 347 q 198 371 223 347 q 173 434 173 397 q 198 495 173 469 q 260 520 223 520 l 781 520 q 842 495 816 520 q 868 434 868 469 q 842 371 868 397 q 781 347 816 347 l 260 347 m 86 0 q 24 24 50 0 q 0 86 0 50 l 0 694 q 50 816 0 766 q 173 868 101 868 l 1302 868 q 1363 842 1337 868 q 1388 781 1388 816 q 1363 718 1388 744 q 1302 694 1337 694 l 260 694 q 198 668 223 694 q 173 607 173 642 l 173 86 q 147 24 173 50 q 86 0 122 0 l 86 0 "},"“":{"x_min":0,"x_max":347.21875,"ha":521,"o":"m 86 1041 q 24 1066 50 1041 q 0 1128 0 1091 l 0 1302 q 24 1239 0 1265 q 86 1215 50 1215 q 147 1189 122 1215 q 173 1128 173 1163 l 173 1041 l 86 1041 m 260 1041 q 198 1066 223 1041 q 173 1128 173 1091 l 173 1302 q 198 1239 173 1265 q 260 1215 223 1215 q 321 1189 295 1215 q 347 1128 347 1163 l 347 1041 l 260 1041 "},"i":{"x_min":0,"x_max":173.609375,"ha":347,"o":"m 173 0 q 50 50 100 0 q 0 173 0 101 l 0 520 q 122 469 71 520 q 173 347 173 417 l 173 0 l 173 0 m 86 694 q 24 718 50 694 q 0 781 0 744 q 24 842 0 816 q 86 868 50 868 q 147 842 122 868 q 173 781 173 816 q 147 718 173 744 q 86 694 122 694 l 86 694 "},"A":{"x_min":0,"x_max":2083.34375,"ha":2257,"o":"m 434 520 q 371 545 397 520 q 347 607 347 571 q 371 668 347 642 q 434 694 397 694 l 1649 694 q 1710 668 1684 694 q 1736 607 1736 642 q 1710 545 1736 571 q 1649 520 1684 520 l 434 520 m 86 0 q 24 24 50 0 q 0 86 0 50 l 0 1041 q 50 1163 0 1113 q 173 1215 101 1215 l 1909 1215 q 2031 1163 1981 1215 q 2083 1041 2083 1112 l 2083 86 q 2057 24 2083 50 q 1996 0 2031 0 q 1934 24 1959 0 q 1909 86 1909 50 l 1909 954 q 1883 1015 1909 990 q 1822 1041 1858 1041 l 260 1041 q 198 1015 223 1041 q 173 954 173 990 l 173 86 q 147 24 173 50 q 86 0 122 0 l 86 0 "},"6":{"x_min":0,"x_max":2083.34375,"ha":2257,"o":"m 1822 173 q 1883 198 1858 173 q 1909 260 1909 223 l 1909 434 q 1883 495 1909 469 q 1822 520 1858 520 l 173 520 l 173 260 q 198 198 173 223 q 260 173 223 173 l 1822 173 m 173 0 q 50 50 100 0 q 0 173 0 101 l 0 1041 q 50 1163 0 1113 q 173 1215 101 1215 l 1996 1215 q 2057 1189 2031 1215 q 2083 1128 2083 1163 q 2057 1066 2083 1091 q 1996 1041 2031 1041 l 173 1041 l 173 694 l 1909 694 q 2031 642 1981 694 q 2083 520 2083 591 l 2083 173 q 2031 50 2083 100 q 1909 0 1980 0 l 173 0 "},"‘":{"x_min":0,"x_max":173.609375,"ha":347,"o":"m 86 1041 q 24 1066 50 1041 q 0 1128 0 1091 l 0 1302 q 24 1239 0 1265 q 86 1215 50 1215 q 147 1189 122 1215 q 173 1128 173 1163 l 173 1041 l 86 1041 "},"n":{"x_min":0,"x_max":1388.890625,"ha":1563,"o":"m 86 0 q 24 24 50 0 q 0 86 0 50 l 0 868 l 1215 868 q 1337 816 1287 868 q 1388 694 1388 764 l 1388 86 q 1363 24 1388 50 q 1302 0 1337 0 q 1239 24 1265 0 q 1215 86 1215 50 l 1215 607 q 1189 668 1215 642 q 1128 694 1163 694 l 173 694 l 173 86 q 147 24 173 50 q 86 0 122 0 l 86 0 "},"O":{"x_min":0,"x_max":2083.34375,"ha":2257,"o":"m 1822 173 q 1883 198 1858 173 q 1909 260 1909 223 l 1909 954 q 1883 1015 1909 990 q 1822 1041 1858 1041 l 260 1041 q 198 1015 223 1041 q 173 954 173 990 l 173 260 q 198 198 173 223 q 260 173 223 173 l 1822 173 m 173 0 q 50 50 100 0 q 0 173 0 101 l 0 1041 q 50 1163 0 1113 q 173 1215 101 1215 l 1909 1215 q 2031 1163 1981 1215 q 2083 1041 2083 1112 l 2083 173 q 2031 50 2083 100 q 1909 0 1980 0 l 173 0 "},"3":{"x_min":0,"x_max":2083.34375,"ha":2257,"o":"m 86 0 q 24 24 50 0 q 0 86 0 50 q 24 147 0 122 q 86 173 50 173 l 1822 173 q 1883 198 1858 173 q 1909 260 1909 223 l 1909 520 l 781 520 q 718 545 744 520 q 694 607 694 571 q 718 668 694 642 q 781 694 744 694 l 1909 694 l 1909 954 q 1883 1015 1909 990 q 1822 1041 1858 1041 l 86 1041 q 24 1066 50 1041 q 0 1128 0 1091 q 24 1189 0 1163 q 86 1215 50 1215 l 1909 1215 q 2031 1163 1981 1215 q 2083 1041 2083 1112 l 2083 173 q 2031 50 2083 100 q 1909 0 1980 0 l 86 0 "},"m":{"x_min":0,"x_max":1475.703125,"ha":1736,"o":"m 105 0 q 29 24 61 0 q 0 86 0 50 l 0 868 l 1265 868 q 1413 816 1352 868 q 1475 694 1475 764 l 1475 86 q 1444 24 1475 50 q 1369 0 1413 0 q 1293 24 1326 0 q 1265 86 1265 50 l 1265 607 q 1234 668 1265 642 q 1159 694 1201 694 l 843 694 l 843 86 q 812 24 843 50 q 737 0 781 0 q 661 24 693 0 q 632 86 632 50 l 632 607 q 600 668 632 642 q 527 694 569 694 l 210 694 l 210 86 q 179 24 210 50 q 105 0 147 0 l 105 0 "},"9":{"x_min":0,"x_max":2083.34375,"ha":2257,"o":"m 1909 694 l 1909 1041 l 260 1041 q 198 1015 223 1041 q 173 954 173 990 l 173 781 q 198 718 173 744 q 260 694 223 694 l 1909 694 m 86 0 q 24 24 50 0 q 0 86 0 50 q 24 147 0 122 q 86 173 50 173 l 1822 173 q 1883 198 1858 173 q 1909 260 1909 223 l 1909 520 l 173 520 q 50 571 100 520 q 0 694 0 622 l 0 1041 q 50 1163 0 1113 q 173 1215 101 1215 l 1909 1215 q 2031 1163 1981 1215 q 2083 1041 2083 1112 l 2083 173 q 2031 50 2083 100 q 1909 0 1980 0 l 86 0 "},"8":{"x_min":0,"x_max":2083.34375,"ha":2257,"o":"m 1822 173 q 1883 198 1858 173 q 1909 260 1909 223 l 1909 434 q 1883 495 1909 469 q 1822 520 1858 520 l 260 520 q 198 495 223 520 q 173 434 173 469 l 173 260 q 198 198 173 223 q 260 173 223 173 l 1822 173 m 1822 694 q 1883 718 1858 694 q 1909 781 1909 744 l 1909 954 q 1883 1015 1909 990 q 1822 1041 1858 1041 l 260 1041 q 198 1015 223 1041 q 173 954 173 990 l 173 781 q 198 718 173 744 q 260 694 223 694 l 1822 694 m 173 0 q 50 50 100 0 q 0 173 0 101 l 0 520 q 50 642 0 592 q 173 694 101 694 q 50 744 100 694 q 0 868 0 796 l 0 1041 q 50 1163 0 1113 q 173 1215 101 1215 l 1909 1215 q 2031 1163 1981 1215 q 2083 1041 2083 1112 l 2083 868 q 2031 744 2083 794 q 1909 694 1980 694 q 2031 642 1981 694 q 2083 520 2083 591 l 2083 173 q 2031 50 2083 100 q 1909 0 1980 0 l 173 0 "},"l":{"x_min":0,"x_max":347.21875,"ha":521,"o":"m 173 0 q 50 50 100 0 q 0 173 0 101 l 0 781 q 24 842 0 816 q 86 868 50 868 q 147 842 122 868 q 173 781 173 816 l 173 173 q 223 50 173 101 q 347 0 275 0 l 173 0 "},"p":{"x_min":0,"x_max":1388.890625,"ha":1563,"o":"m 1128 173 q 1189 198 1163 173 q 1215 260 1215 223 q 1189 321 1215 295 q 1128 347 1163 347 l 173 347 l 173 173 l 1128 173 m 0 -347 l 0 520 l 1215 520 q 1337 469 1287 520 q 1388 347 1388 417 l 1388 173 q 1337 50 1388 100 q 1215 0 1285 0 l 173 0 l 173 -173 q 122 -295 173 -245 q 0 -347 70 -347 l 0 -347 "},"4":{"x_min":0,"x_max":2083.34375,"ha":2257,"o":"m 1996 0 q 1934 24 1959 0 q 1909 86 1909 50 l 1909 520 l 173 520 q 50 571 100 520 q 0 694 0 622 l 0 1128 q 24 1189 0 1163 q 86 1215 50 1215 q 147 1189 122 1215 q 173 1128 173 1163 l 173 781 q 198 718 173 744 q 260 694 223 694 l 1909 694 l 1909 1128 q 1934 1189 1909 1163 q 1996 1215 1959 1215 q 2057 1189 2031 1215 q 2083 1128 2083 1163 l 2083 86 q 2057 24 2083 50 q 1996 0 2031 0 l 1996 0 "},"R":{"x_min":0,"x_max":2083.34375,"ha":2257,"o":"m 86 0 q 24 24 50 0 q 0 86 0 50 l 0 606 q 24 668 0 642 q 86 694 50 694 l 1822 694 q 1883 718 1858 694 q 1909 781 1909 744 l 1909 954 q 1883 1015 1909 990 q 1822 1041 1858 1041 l 86 1041 q 24 1066 50 1041 q 0 1128 0 1091 q 24 1189 0 1163 q 86 1215 50 1215 l 1909 1215 q 2031 1163 1981 1215 q 2083 1041 2083 1112 l 2083 694 q 2031 571 2083 621 q 1909 520 1980 520 l 1562 520 l 2083 0 l 1822 0 l 1302 520 l 173 520 l 173 86 q 147 24 173 50 q 86 0 122 0 l 86 0 "},"o":{"x_min":0,"x_max":1388.890625,"ha":1563,"o":"m 1128 173 q 1189 198 1163 173 q 1215 260 1215 223 l 1215 607 q 1189 668 1215 642 q 1128 694 1163 694 l 260 694 q 198 668 223 694 q 173 607 173 642 l 173 260 q 198 198 173 223 q 260 173 223 173 l 1128 173 m 173 0 q 50 50 100 0 q 0 173 0 101 l 0 694 q 50 816 0 766 q 173 868 101 868 l 1215 868 q 1337 816 1287 868 q 1388 694 1388 764 l 1388 173 q 1337 50 1388 100 q 1215 0 1285 0 l 173 0 "},"5":{"x_min":0,"x_max":2083.34375,"ha":2257,"o":"m 86 0 q 24 24 50 0 q 0 86 0 50 q 24 147 0 122 q 86 173 50 173 l 1822 173 q 1883 198 1858 173 q 1909 260 1909 223 l 1909 434 q 1883 495 1909 469 q 1822 520 1858 520 l 0 520 l 0 1215 l 2083 1215 l 2083 1041 l 173 1041 l 173 694 l 1909 694 q 2031 642 1981 694 q 2083 520 2083 591 l 2083 173 q 2031 50 2083 100 q 1909 0 1980 0 l 86 0 "}}}
